<svg width="32" height="32" viewBox="0 0 32 32" fill="none" xmlns="http://www.w3.org/2000/svg">
<defs>
  <filter id="frost" x="-20%" y="-20%" width="140%" height="140%">
    <feGaussianBlur in="SourceGraphic" stdDeviation="0.7"/>
  </filter>
  <radialGradient id="tealFrost" cx="50%" cy="50%" r="50%">
    <stop offset="0%" stop-color="#8edce1" stop-opacity="0.95"/>
    <stop offset="55%" stop-color="#00757f" stop-opacity="0.9"/>
    <stop offset="100%" stop-color="#005b63" stop-opacity="0.85"/>
  </radialGradient>
</defs>
<rect width="32" height="32" rx="7" fill="#f4f6f7"/>
<rect width="32" height="32" rx="7" fill="url(#tealFrost)" opacity="0.0"/>
<!-- frosted teal asterisk - 8 arms -->
<g stroke="#00757f" stroke-width="2.6" stroke-linecap="round" filter="url(#frost)" opacity="0.95">
  <line x1="16" y1="7" x2="16" y2="25"/>
  <line x1="16" y1="7" x2="16" y2="25" transform="rotate(45 16 16)"/>
  <line x1="16" y1="7" x2="16" y2="25" transform="rotate(90 16 16)"/>
  <line x1="16" y1="7" x2="16" y2="25" transform="rotate(135 16 16)"/>
</g>
<g stroke="#55c5cc" stroke-width="1.1" stroke-linecap="round" opacity="0.55">
  <line x1="16" y1="7" x2="16" y2="25"/>
  <line x1="16" y1="7" x2="16" y2="25" transform="rotate(45 16 16)"/>
  <line x1="16" y1="7" x2="16" y2="25" transform="rotate(90 16 16)"/>
  <line x1="16" y1="7" x2="16" y2="25" transform="rotate(135 16 16)"/>
</g>
<circle cx="16" cy="16" r="1.7" fill="#005b63" opacity="0.9"/>
</svg>
